<svg width="32" height="33" viewBox="0 0 32 33" fill="none" xmlns="http://www.w3.org/2000/svg">
<path d="M25.3613 16.5574V7.22404C25.3613 5.75071 24.168 4.55737 22.6947 4.55737H6.69467C5.22133 4.55737 4.028 5.75071 4.028 7.22404V23.224C4.028 24.6974 5.22133 25.8907 6.69467 25.8907H16.028" stroke="white" stroke-width="1.5" stroke-linecap="round" stroke-linejoin="round"/>
<path fill-rule="evenodd" clip-rule="evenodd" d="M27.536 26.18L25.6507 28.0654C25.1293 28.5867 24.2853 28.5867 23.7653 28.0654L13.724 18.024C13.4733 17.7747 13.3333 17.4347 13.3333 17.0814V13.8627H16.552C16.9053 13.8627 17.2453 14.0027 17.4947 14.2534L27.536 24.2947C28.0573 24.8147 28.0573 25.6587 27.536 26.18V26.18Z" stroke="white" stroke-width="1.5" stroke-linecap="round" stroke-linejoin="round"/>
<path d="M25.1467 21.9107L21.3733 25.6707" stroke="white" stroke-width="1.5" stroke-linecap="round" stroke-linejoin="round"/>
</svg>
